<svg xmlns="http://www.w3.org/2000/svg" width="100%" height="100%" viewBox="0 0 16 17" fill="none" preserveAspectRatio="xMidYMid meet" aria-hidden="true" role="img"><path d="M10.3332 5.33333C10.3332 3.49239 8.84077 2 6.99984 2C5.15889 2 3.6665 3.49239 3.6665 5.33333C3.6665 7.17427 5.15889 8.66667 6.99984 8.66667C8.84077 8.66667 10.3332 7.17427 10.3332 5.33333Z" stroke="currentColor" stroke-width="0.8" stroke-linecap="round" stroke-linejoin="round"></path><path d="M2.3335 13.3332C2.3335 10.7558 4.42284 8.6665 7.00016 8.6665C7.85016 8.6665 8.6471 8.89377 9.3335 9.29084" stroke="currentColor" stroke-width="0.8" stroke-linecap="round" stroke-linejoin="round"></path><path d="M13.4591 9.95611L13.0441 9.54105C12.7673 9.26431 12.3187 9.26431 12.0419 9.54105L9.8094 11.7736C9.51267 12.0703 9.3104 12.4483 9.22807 12.8598L9 14.0002L10.1403 13.7721C10.5519 13.6898 10.9299 13.4875 11.2266 13.1908L13.4591 10.9582C13.7359 10.6815 13.7359 10.2328 13.4591 9.95611Z" stroke="currentColor" stroke-width="0.8" stroke-linecap="round" stroke-linejoin="round"></path></svg>