<svg width="16" height="17" viewBox="0 0 16 17" fill="none" xmlns="http://www.w3.org/2000/svg"><path d="M8 8.41504V12.415" stroke="#525252" stroke-linecap="round"></path><path d="M7.99998 12.415C6.88425 12.415 5.91312 13.0897 5.41175 14.085C5.17229 14.5604 5.51591 15.0817 5.97249 15.0817H10.0274C10.484 15.0817 10.8276 14.5604 10.5882 14.085C10.0868 13.0897 9.11571 12.415 7.99998 12.415Z" stroke="#525252" stroke-linecap="round"></path><path d="M3.33331 3.74854H2.65645C1.99877 3.74854 1.66993 3.74854 1.46676 3.99556C1.26359 4.24258 1.32317 4.51918 1.44233 5.0724C1.66994 6.12911 2.16363 7.05747 2.83258 7.74854" stroke="#525252" stroke-linecap="round"></path><path d="M12.6667 3.74854H13.3436C14.0012 3.74854 14.3301 3.74854 14.5332 3.99556C14.7364 4.24258 14.6768 4.51918 14.5577 5.0724C14.3301 6.12911 13.8364 7.05747 13.1674 7.74854" stroke="#525252" stroke-linecap="round"></path><path d="M7.99998 8.4152C10.5773 8.4152 12.6666 6.33727 12.6666 3.77401C12.6666 3.70679 12.6652 3.63991 12.6624 3.57339C12.6339 2.90724 12.6196 2.57417 12.1682 2.16135C11.7167 1.74854 11.2164 1.74854 10.216 1.74854H5.78395C4.78349 1.74854 4.28326 1.74854 3.83179 2.16135C3.38032 2.57416 3.36608 2.90724 3.33759 3.57339C3.33475 3.63991 3.33331 3.70679 3.33331 3.77401C3.33331 6.33727 5.42265 8.4152 7.99998 8.4152Z" stroke="#525252" stroke-linecap="round"></path></svg>