<svg width="16" height="17" viewBox="0 0 16 17" fill="none" xmlns="http://www.w3.org/2000/svg"><path d="M7.96385 4.41504L6.38921 11.8054C6.2639 12.3935 6.33287 12.6137 6.76478 13.036L8.51151 14.744C8.74178 14.9691 8.85691 15.0817 8.99998 15.0817C9.14305 15.0817 9.25818 14.9691 9.48845 14.744L11.2352 13.036C11.6671 12.6137 11.736 12.3935 11.6108 11.8054L10.0361 4.41504" stroke="#525252" stroke-linecap="round" stroke-linejoin="round"></path><path d="M7.03785 2.49789C6.99292 2.14863 6.97045 1.974 7.07285 1.86127C7.17532 1.74854 7.35645 1.74854 7.71872 1.74854H10.2813C10.6435 1.74854 10.8247 1.74854 10.9271 1.86127C11.0295 1.974 11.0071 2.14863 10.9621 2.49789L10.9283 2.76141C10.8332 3.49999 10.7857 3.86928 10.5483 4.10886C10.5097 4.14779 10.4679 4.18362 10.4233 4.21598C10.1492 4.4152 9.76612 4.4152 8.99998 4.4152C8.23385 4.4152 7.85078 4.4152 7.57665 4.21598C7.53212 4.18362 7.49032 4.14779 7.45172 4.10886C7.21425 3.86928 7.16678 3.49999 7.07172 2.7614L7.03785 2.49789Z" stroke="#525252" stroke-linecap="round" stroke-linejoin="round"></path><path d="M6.66658 10.415C6.26141 10.8767 5.91832 11.0817 5.66658 11.0817C5.34366 11.0817 4.76232 10.268 4.50431 9.67864C4.38324 9.40211 4.32272 9.26384 4.33476 9.08891C4.34679 8.91397 4.42608 8.78604 4.58465 8.53017C5.48134 7.08331 7.0096 5.76246 7.99993 4.41504" stroke="#525252" stroke-linejoin="round"></path></svg>