<svg width="16" height="17" viewBox="0 0 16 17" fill="none" xmlns="http://www.w3.org/2000/svg"><path d="M3.00845 13.4911C4.6834 15.0863 6.67742 14.4482 7.47502 13.8022C7.88768 13.4679 8.07322 13.2518 8.23268 13.0923C8.79102 12.5738 8.75515 12.0554 8.39222 11.6407C8.24702 11.4747 7.31548 10.5799 6.42217 9.66263C5.95956 9.19996 5.64052 8.87303 5.36774 8.60983C5.00244 8.24569 4.68341 7.82816 4.20485 7.84009C3.76617 7.84009 3.44713 8.22696 3.04833 8.62576C2.58956 9.08449 2.25074 9.66263 2.1311 10.1811C1.77218 11.6965 2.3305 12.7732 3.00845 13.4911ZM3.00845 13.4911L1.3335 15.166" stroke="#525252" stroke-linecap="round"></path><path d="M12.9913 3.50973C11.3159 1.91377 9.32881 2.56387 8.53101 3.21024C8.11821 3.54466 7.93268 3.76084 7.77308 3.92044C7.21461 4.43912 7.25055 4.9578 7.61355 5.37276C7.66575 5.43246 7.81968 5.58642 8.03688 5.80179M12.9913 3.50973C13.6695 4.22791 14.2354 5.3169 13.8763 6.83306C13.7567 7.35172 13.4178 7.93012 12.9589 8.38912C12.56 8.78812 12.2409 9.17512 11.8021 9.17512C11.3233 9.18712 11.0749 8.84092 10.7095 8.47665M12.9913 3.50973L14.6668 1.83398M8.03688 5.80179C8.42388 6.18546 9.01188 6.764 9.58415 7.35172C10.0469 7.81465 10.4367 8.21332 10.7095 8.47665M8.03688 5.80179L7.00781 6.83731M10.7095 8.47665L9.66848 9.49298" stroke="#525252" stroke-linecap="round"></path></svg>