<svg width="16" height="17" viewBox="0 0 16 17" fill="none" xmlns="http://www.w3.org/2000/svg"><path d="M2.6665 5.8335C2.6665 3.94788 2.6665 3.00507 3.33598 2.41928C4.00544 1.8335 5.08294 1.8335 7.2379 1.8335H8.76177C10.9167 1.8335 11.9942 1.8335 12.6637 2.41928C13.3332 3.00507 13.3332 3.94788 13.3332 5.8335V11.8335H2.6665V5.8335Z" stroke="#525252" stroke-linejoin="round"></path><path d="M2 11.8335H14" stroke="#525252" stroke-linecap="round"></path><path d="M7.13248 4.21043C7.95262 4.09289 9.31162 4.13991 8.18688 5.26828C6.78102 6.67875 4.67226 9.85244 7.13248 8.79457C9.59275 7.73677 10.6473 8.44197 9.59288 9.49984" stroke="#525252" stroke-linecap="round" stroke-linejoin="round"></path><path d="M8 11.8335V14.5002" stroke="#525252" stroke-linecap="round"></path><path d="M3.3335 15.1668L5.3335 11.8335" stroke="#525252" stroke-linecap="round"></path><path d="M12.6665 15.1668L10.6665 11.8335" stroke="#525252" stroke-linecap="round"></path></svg>