<svg width="16" height="17" viewBox="0 0 16 17" fill="none" xmlns="http://www.w3.org/2000/svg"><path d="M9.987 5.09229C9.987 5.09229 10.3203 5.42562 10.6537 6.09229C10.6537 6.09229 11.7125 4.42562 12.6537 4.09229" stroke="#525252" stroke-linecap="round" stroke-linejoin="round"></path><path d="M6.66321 1.76264C4.99757 1.69212 3.71073 1.884 3.71073 1.884C2.89816 1.9421 1.34095 2.39765 1.34097 5.05811C1.34098 7.69595 1.32374 10.9479 1.34097 12.2443C1.34097 13.0364 1.83138 14.8839 3.52882 14.9829C5.59205 15.1033 9.30847 15.1289 11.0136 14.9829C11.4701 14.9572 12.9897 14.5989 13.1821 12.9455C13.3813 11.2326 13.3417 10.0422 13.3417 9.75888" stroke="#525252" stroke-linecap="round" stroke-linejoin="round"></path><path d="M14.6667 5.09212C14.6667 6.93307 13.1729 8.42548 11.3301 8.42548C9.48739 8.42548 7.99359 6.93307 7.99359 5.09212C7.99359 3.25118 9.48739 1.75879 11.3301 1.75879C13.1729 1.75879 14.6667 3.25118 14.6667 5.09212Z" stroke="#525252" stroke-linecap="round"></path><path d="M4.65363 9.09229H7.32027" stroke="#525252" stroke-linecap="round"></path><path d="M4.65363 11.7588H9.98694" stroke="#525252" stroke-linecap="round"></path></svg>