<svg width="16" height="17" viewBox="0 0 16 17" fill="none" xmlns="http://www.w3.org/2000/svg"><path d="M12.9448 10.8906C15.5786 7.55091 14.8671 4.23843 12.975 3.07781C11.1872 1.98119 9.62691 2.42311 8.68958 3.12705L7.99985 3.64276M12.9448 10.8906C12.3126 11.6921 11.4878 12.4953 10.4403 13.2706C9.40951 14.0336 8.89411 14.415 7.99998 14.415C7.10585 14.415 6.59046 14.0336 5.55967 13.2706C0.147792 9.26497 0.678692 4.51699 3.02494 3.07781C4.81271 1.98119 6.37306 2.42311 7.31038 3.12705L7.99985 3.64276M12.9448 10.8906L9.26138 6.71157C9.11058 6.54051 8.85818 6.50368 8.66478 6.62453L7.20738 7.53544C6.69451 7.85597 6.02887 7.78384 5.59658 7.36084C5.02556 6.80212 5.08317 5.86683 5.71845 5.38241L7.99985 3.64276" stroke="#525252" stroke-linecap="round" stroke-linejoin="round"></path></svg>