<svg width="16" height="17" viewBox="0 0 16 17" fill="none" xmlns="http://www.w3.org/2000/svg"><path d="M7.33765 14.4149H6.40362C4.01345 14.4149 2.81837 14.4149 2.07584 13.6583C1.33331 12.9016 1.33331 11.6838 1.33331 9.2482C1.33331 6.81262 1.33331 5.59482 2.07584 4.83818C2.81837 4.08154 4.01345 4.08154 6.40362 4.08154H8.93878C11.3289 4.08154 12.524 4.08154 13.2666 4.83818C13.8378 5.42034 13.9696 6.27548 14 7.7482" stroke="#525252" stroke-linecap="round"></path><path d="M11.4073 9.25161C11.5304 9.13821 11.5919 9.08154 11.6667 9.08154C11.7414 9.08154 11.8029 9.13821 11.926 9.25161L12.4011 9.68934C12.4585 9.74221 12.4872 9.76868 12.5229 9.78174C12.5585 9.79488 12.5975 9.79334 12.6755 9.79028L13.3175 9.76508C13.4827 9.75854 13.5654 9.75534 13.6221 9.80294C13.6787 9.85054 13.6897 9.93254 13.7118 10.0965L13.8003 10.7533C13.8105 10.8293 13.8156 10.8672 13.8341 10.8996C13.8526 10.932 13.8827 10.9557 13.9429 11.0031L14.4599 11.4101C14.5878 11.5108 14.6518 11.5611 14.6645 11.6331C14.6771 11.7051 14.6342 11.7743 14.5483 11.9127L14.1977 12.4777C14.1575 12.5424 14.1375 12.5747 14.1311 12.6113C14.1247 12.6477 14.1327 12.685 14.1485 12.7594L14.2877 13.4117C14.3218 13.5719 14.3389 13.6521 14.3022 13.7157C14.2655 13.7793 14.1876 13.8047 14.0318 13.8555L13.4147 14.0565C13.3411 14.0804 13.3043 14.0924 13.2756 14.1167C13.2469 14.1411 13.2291 14.1755 13.1935 14.2441L12.892 4.8251C12.8151 14.9732 12.7767 15.0472 12.7067 15.0727C12.6367 15.0983 12.5597 15.0663 12.4056 15.0024L11.8133 14.7567C11.7409 14.7267 11.7048 14.7117 11.6667 14.7117C11.6285 14.7117 11.5924 14.7267 11.52 14.7567L10.9277 15.0024C10.7737 15.0663 10.6966 15.0983 10.6266 15.0727C10.5566 15.0472 10.5182 14.9732 10.4413 14.8251L10.1399 14.2441C10.1043 14.1755 10.0865 14.1411 10.0577 14.1167C10.029 14.0924 9.9922 14.0804 9.91867 14.0565L9.30154 13.8555C9.14574 13.8047 9.0678 13.7793 9.03114 13.7157C8.9944 13.6521 9.01154 13.5719 9.04567 13.4117L9.1848 12.7594C9.20067 12.685 9.2086 12.6477 9.2022 12.6113C9.1958 12.5747 9.1758 12.5424 9.13567 12.4777L8.785 11.9127C8.69914 11.7743 8.6562 11.7051 8.66887 11.6331C8.68154 11.5611 8.74554 11.5108 8.87347 11.4101L9.39047 11.0031C9.45067 10.9557 9.48074 10.932 9.49927 10.8996C9.51774 10.8672 9.52287 10.8293 9.53307 10.7533L9.62154 10.0965C9.6436 9.93254 9.6546 9.85054 9.71127 9.80294C9.76794 9.75534 9.8506 9.75854 10.0159 9.76508L10.6578 9.79028C10.7358 9.79334 10.7748 9.79488 10.8105 9.78174C10.8461 9.76868 10.8748 9.74221 10.9322 9.68934L11.4073 9.25161Z" stroke="#525252"></path><path d="M10.6665 4.08187L10.6003 3.87583C10.2703 2.84913 10.1053 2.33578 9.7124 2.04216C9.3196 1.74854 8.7978 1.74854 7.7542 1.74854H7.5788C6.5352 1.74854 6.0134 1.74854 5.62058 2.04216C5.22774 2.33578 5.06274 2.84913 4.73273 3.87583L4.6665 4.08187" stroke="#525252"></path></svg>